<?xml version="1.0" standalone="no"?>
<!DOCTYPE svg PUBLIC "-//W3C//DTD SVG 20010904//EN"
 "http://www.w3.org/TR/2001/REC-SVG-20010904/DTD/svg10.dtd">
<svg version="1.0" xmlns="http://www.w3.org/2000/svg"
 width="256.000000pt" height="256.000000pt" viewBox="0 0 256.000000 256.000000"
 preserveAspectRatio="xMidYMid meet">

<g transform="translate(0.000000,256.000000) scale(0.100000,-0.100000)"
fill="#000000" stroke="none">
<path d="M1170 2198 c-14 -6 -45 -19 -68 -30 -24 -10 -68 -28 -97 -39 -65 -24
-90 -49 -81 -83 8 -31 -5 -35 -108 -34 -60 1 -88 6 -113 21 -46 27 -92 17
-132 -29 -22 -24 -31 -45 -31 -69 0 -36 -15 -48 -42 -32 -37 24 -128 -75 -128
-138 0 -12 11 -32 24 -44 22 -20 25 -39 17 -93 -3 -19 -32 -5 -46 22 -18 34
-40 38 -73 10 -19 -16 -22 -25 -16 -56 7 -36 7 -36 -24 -29 -23 5 -33 2 -40
-12 -9 -15 -13 -16 -35 -4 -48 26 -116 -22 -75 -53 18 -15 42 -90 34 -111 -3
-9 -22 -23 -41 -31 -40 -16 -50 -54 -15 -54 13 0 25 -12 34 -32 24 -53 38 -64
90 -71 27 -4 55 -12 63 -18 23 -19 -4 -39 -54 -39 -31 0 -55 -8 -81 -25 -20
-14 -43 -25 -50 -25 -11 0 -12 -7 -8 -27 4 -16 10 -41 13 -57 3 -16 14 -31 24
-33 12 -4 19 -14 19 -29 0 -28 25 -43 43 -25 6 6 26 11 45 11 43 0 72 16 72
39 0 10 9 26 20 36 19 17 23 18 83 1 34 -9 98 -35 141 -58 l80 -41 105 31
c183 53 191 52 291 -43 42 -40 66 -54 98 -60 71 -12 85 -30 93 -126 4 -46 6
-85 4 -87 -2 -2 -23 5 -47 15 -54 24 -104 17 -149 -21 -46 -39 -72 -47 -109
-35 -23 8 -38 8 -61 -1 -32 -14 -89 -65 -89 -81 0 -15 31 -10 64 10 17 10 58
25 91 32 33 7 89 25 124 41 74 32 95 34 151 12 23 -9 44 -13 48 -9 4 3 7 40 7
80 0 47 3 71 10 64 5 -5 9 -25 9 -44 0 -27 4 -35 17 -35 10 0 19 9 21 22 2 12
9 23 16 26 8 2 12 -10 12 -43 0 -28 -4 -44 -10 -40 -5 3 -10 2 -10 -4 0 -5 4
-12 8 -15 5 -3 9 -20 10 -37 1 -39 -35 -89 -84 -118 -21 -13 -34 -27 -32 -37
5 -25 -95 -74 -151 -74 -87 0 -83 15 20 65 53 25 109 58 125 72 16 13 41 32
57 41 15 9 26 21 24 27 -3 9 -26 12 -144 17 -18 1 -41 -6 -51 -15 -10 -10 -34
-17 -53 -17 -19 0 -45 -7 -59 -15 -111 -65 -195 -82 -221 -46 -8 10 -27 22
-42 25 -25 6 -28 4 -23 -12 5 -14 1 -21 -14 -25 -11 -3 -20 -12 -20 -20 0 -17
29 -27 83 -27 35 0 48 -12 27 -25 -5 -3 -10 -13 -10 -22 0 -12 9 -10 44 11 31
18 58 26 88 25 24 0 37 -3 30 -6 -7 -3 -17 -16 -22 -29 -5 -13 -17 -24 -26
-24 -13 0 -14 -3 -5 -14 10 -12 36 -14 124 -11 121 4 185 20 250 63 42 28 157
45 157 23 0 -20 57 -40 121 -41 64 -2 159 18 159 32 0 11 -46 10 -94 -1 -44
-11 -75 -2 -106 29 -12 12 -33 20 -53 20 -49 0 -51 9 -10 44 34 30 35 33 19
49 -10 9 -26 17 -35 17 -28 0 -38 19 -44 87 -8 72 -22 102 -48 96 -14 -4 -20
7 -33 54 -23 83 -49 126 -82 137 -16 4 -44 15 -62 22 -24 10 -38 11 -53 4 -16
-9 -32 -1 -100 47 -77 55 -83 62 -125 147 -59 122 -47 132 30 25 56 -77 74
-90 186 -134 52 -21 133 -56 180 -79 72 -35 88 -47 103 -79 22 -47 41 -47 53
0 8 31 16 40 50 53 58 21 114 61 182 127 89 88 117 140 149 281 5 22 20 38 29
30 2 -3 -2 -20 -10 -39 -7 -19 -19 -68 -26 -109 -16 -102 -23 -117 -80 -178
-60 -65 -115 -103 -136 -95 -9 3 -27 -6 -45 -23 -39 -37 -38 -73 6 -160 19
-38 35 -84 35 -101 0 -18 5 -33 11 -33 13 0 5 61 -18 138 -16 52 -16 53 7 77
30 32 36 31 48 -3 11 -32 -6 -222 -20 -222 -4 0 -8 -4 -8 -10 0 -14 20 -12 54
5 19 10 33 12 40 6 7 -6 34 -15 61 -21 79 -17 101 -29 118 -66 10 -19 24 -37
32 -40 23 -9 18 -24 -9 -24 -13 0 -29 7 -36 15 -7 8 -22 15 -35 15 -12 0 -34
11 -49 25 -18 16 -39 25 -61 25 -43 0 -135 -19 -135 -28 1 -4 13 -25 28 -47
24 -35 34 -40 70 -43 33 -2 42 0 42 12 0 9 -6 16 -12 16 -9 0 -8 4 2 10 29 19
130 0 130 -24 0 -8 7 -19 15 -26 15 -12 25 -9 170 43 22 8 41 22 43 31 2 9 10
16 18 16 8 0 14 4 14 10 0 13 -28 27 -73 35 -20 4 -57 22 -81 41 -39 30 -52
34 -104 34 -62 0 -120 18 -141 44 -10 12 -10 23 -1 50 13 40 6 74 -28 139
l-25 47 29 33 c16 17 32 33 37 35 4 2 7 9 7 16 0 7 8 21 19 30 25 22 137 23
206 2 74 -23 89 -21 121 20 81 103 132 124 186 79 44 -37 75 -47 101 -34 94
49 147 103 147 150 0 14 5 30 12 37 8 8 8 15 0 25 -6 7 -9 22 -6 33 4 15 -3
24 -30 37 -34 16 -36 16 -64 -8 -39 -33 -103 -43 -125 -20 -25 24 -12 35 24
22 29 -11 32 -10 61 26 16 20 38 37 47 37 10 0 23 11 29 25 36 76 35 72 13 94
-12 12 -25 21 -31 21 -18 0 -10 17 15 34 31 21 32 36 1 65 -21 20 -23 28 -18
89 l4 67 -33 11 c-19 6 -53 10 -76 9 -40 -1 -55 7 -34 19 10 6 -15 66 -28 66
-3 0 -16 -7 -28 -15 -14 -10 -32 -13 -48 -9 -18 4 -25 2 -25 -9 0 -8 -7 -18
-16 -21 -22 -8 -24 -8 -24 8 0 22 29 46 55 46 16 0 26 9 35 29 6 17 9 34 6 39
-9 16 -57 21 -89 9 -27 -9 -33 -7 -52 17 -19 24 -24 26 -48 15 -22 -10 -34 -8
-77 10 -28 12 -56 19 -62 15 -33 -21 -108 11 -108 45 0 5 -13 16 -29 24 -23
12 -29 12 -37 0 -7 -11 -21 -11 -74 -2 -35 5 -67 14 -70 19 -12 19 -66 30
-153 30 -62 0 -101 5 -121 15 -33 17 -61 18 -96 3z m204 -79 c35 -28 33 -55
-5 -75 -26 -13 -36 -14 -54 -4 -18 9 -28 9 -45 0 -22 -12 -22 -11 -16 24 8 42
3 44 -41 14 -27 -19 -33 -29 -33 -59 0 -28 -6 -41 -25 -53 -29 -19 -45 -14
-45 15 0 10 -4 19 -10 19 -5 0 -10 -6 -10 -12 0 -7 -13 -22 -30 -33 -20 -14
-28 -26 -24 -37 4 -15 -1 -18 -28 -18 -26 0 -36 6 -45 26 -18 38 -8 50 54 64
56 12 103 46 103 74 0 16 98 54 170 66 25 4 48 8 51 9 4 0 18 -8 33 -20z m393
-171 c-3 -8 -6 -5 -6 6 -1 11 2 17 5 13 3 -3 4 -12 1 -19z m-27 -8 c0 -5 -4
-10 -10 -10 -5 0 -10 5 -10 10 0 6 5 10 10 10 6 0 10 -4 10 -10z m-950 -104
c0 -37 -13 -52 -50 -58 -39 -5 -31 -32 10 -36 19 -2 38 -9 42 -15 12 -19 9
-37 -6 -37 -8 0 -18 -9 -21 -20 -7 -22 -8 -22 -75 -25 -25 -1 -60 -3 -78 -3
-40 -2 -82 -43 -82 -82 0 -39 -18 -54 -97 -79 -46 -14 -77 -29 -83 -42 -13
-22 -40 -26 -40 -4 0 9 -9 15 -25 15 -14 0 -25 -4 -25 -10 0 -5 -6 -10 -14
-10 -18 0 -27 -35 -13 -49 8 -8 8 -11 -1 -11 -7 0 -12 -9 -12 -19 0 -21 -17
-37 -27 -27 -4 3 -1 17 6 30 9 16 10 33 3 57 -11 42 -6 59 18 59 10 0 22 5 25
10 3 6 19 10 34 10 16 0 37 10 51 25 17 18 34 25 63 25 50 0 93 25 108 64 7
17 25 45 40 63 15 17 32 49 39 70 16 51 58 95 82 87 11 -3 26 0 34 6 23 20 78
47 87 43 4 -3 7 -19 7 -37z m1170 -7 c0 -11 -4 -17 -10 -14 -5 3 -10 13 -10
21 0 8 5 14 10 14 6 0 10 -9 10 -21z m-708 -15 c-6 -32 -20 -38 -56 -24 -32
12 -30 33 2 35 12 1 25 5 29 8 16 16 30 6 25 -19z m978 8 c0 -13 -12 -22 -22
-16 -10 6 -1 24 13 24 5 0 9 -4 9 -8z m-234 -67 c4 -8 11 -15 18 -15 31 0 163
-61 180 -83 33 -44 -7 -67 -41 -24 -14 19 -32 25 -82 30 -36 4 -72 14 -81 22
-9 8 -24 15 -34 15 -23 0 -76 28 -76 40 0 5 13 7 29 4 20 -4 30 -2 34 10 8 20
46 21 53 1z m-359 -75 c17 0 38 -7 47 -15 8 -8 19 -15 25 -15 21 0 11 -15 -25
-40 -40 -27 -77 -28 -101 -4 -10 10 -25 13 -40 9 -18 -4 -25 -1 -32 17 -7 18
-3 25 23 39 17 9 40 15 51 13 11 -2 34 -4 52 -4z m-253 -29 c19 -21 12 -45
-19 -71 -22 -18 -26 -10 -19 43 7 52 13 56 38 28z m-89 -113 c-3 -10 -8 -27
-11 -38 -9 -32 -78 -28 -100 5 -20 31 -12 55 18 55 13 0 29 4 37 9 22 14 62
-8 56 -31z m577 -60 c-6 -6 -15 -8 -19 -4 -4 4 -1 11 7 16 19 12 27 3 12 -12z
m-1151 -40 c7 -13 6 -18 -4 -18 -21 0 -37 22 -37 50 1 24 1 25 16 5 9 -11 20
-28 25 -37z m751 25 c18 -16 18 -17 -9 -45 -36 -37 -43 -35 -43 10 0 55 17 67
52 35z m-105 -57 c-3 -6 -15 -68 -28 -139 -20 -109 -21 -134 -11 -172 7 -25
12 -53 12 -63 0 -10 11 -29 25 -42 32 -31 40 -13 26 66 -11 68 -2 145 18 152
11 4 13 -5 8 -44 -6 -55 9 -98 49 -135 32 -30 30 -39 -5 -39 -42 0 -61 -10
-72 -36 l-9 -24 -52 28 c-51 28 -53 31 -65 88 -20 99 -18 133 24 314 19 84 27
94 59 73 14 -9 23 -21 21 -27z m-439 -51 c-2 -14 -12 -21 -32 -23 -34 -4 -58
14 -32 24 10 4 22 18 28 33 9 25 10 26 24 6 8 -11 13 -29 12 -40z m217 35 c17
-19 17 -20 -1 -20 -27 0 -48 16 -40 29 10 16 20 14 41 -9z m758 0 c-3 -11 0
-20 6 -20 15 0 14 -27 -1 -33 -7 -3 -3 -6 9 -6 27 -1 37 -30 29 -84 -5 -36 -3
-46 19 -69 14 -16 32 -28 40 -28 21 0 19 -14 -5 -35 -18 -16 -26 -17 -71 -7
-28 7 -70 12 -95 12 -24 0 -44 3 -44 8 0 4 10 57 23 119 17 84 29 118 47 138
28 30 50 33 43 5z m-849 -17 c3 -10 19 -71 35 -135 17 -64 40 -136 51 -159
l22 -42 -29 7 c-15 4 -46 11 -68 15 -55 11 -95 28 -95 41 0 5 9 10 21 10 16 0
53 14 67 25 1 1 -2 33 -7 71 -18 126 -21 184 -12 184 5 0 12 -8 15 -17z m186
3 c0 -23 -20 -30 -46 -15 -18 9 -21 15 -12 21 21 13 58 9 58 -6z m-607 -11
c17 -7 17 -9 1 -26 -11 -13 -15 -28 -11 -49 l7 -30 -50 0 c-65 0 -79 27 -55
106 4 13 79 12 108 -1z m1097 -4 c0 -5 -9 -30 -20 -56 -11 -26 -20 -56 -20
-68 0 -12 -9 -37 -20 -55 -31 -50 -122 -142 -141 -142 -31 0 -60 34 -66 77 -5
36 -3 44 13 49 11 3 27 10 36 15 10 5 35 9 57 9 31 0 47 7 75 34 41 38 46 61
14 72 -13 5 -25 8 -28 7 -3 0 -20 -4 -37 -8 -28 -6 -33 -4 -33 13 0 27 29 51
40 33 10 -17 59 -6 66 14 7 16 64 21 64 6z m310 -15 c0 -7 -7 -19 -16 -27 -9
-7 -14 -22 -11 -36 5 -28 -7 -29 -35 -3 l-21 19 29 29 c32 32 54 40 54 18z
m-1260 -43 c0 -15 -5 -23 -12 -21 -19 7 -32 34 -24 53 9 24 36 1 36 -32z m235
-23 c0 -9 -13 -17 -30 -20 -24 -4 -31 -11 -35 -35 -7 -43 -44 -47 -64 -7 -17
33 -13 42 18 43 12 0 35 9 51 19 34 22 60 21 60 0z m427 -22 c-7 -7 -12 -8
-12 -2 0 14 12 26 19 19 2 -3 -1 -11 -7 -17z m-938 -13 c3 -8 17 -20 31 -25
39 -15 43 -39 11 -67 -31 -27 -35 -27 -60 -8 -18 14 -18 15 5 35 17 15 20 23
11 27 -17 7 -42 33 -42 44 0 15 37 10 44 -6z m-133 -38 c-13 -13 -26 -3 -16
12 3 6 11 8 17 5 6 -4 6 -10 -1 -17z m830 -14 c0 -21 8 -69 18 -106 18 -68 18
-68 -3 -65 -22 3 -31 18 -70 121 -31 80 -31 80 -8 73 9 -3 24 -1 32 4 25 16
30 12 31 -27z m-416 -17 c24 -16 51 -86 41 -111 -2 -7 -17 -16 -32 -19 -15 -4
-60 -23 -99 -42 -40 -19 -80 -34 -90 -34 -9 0 -46 15 -83 34 -37 19 -86 37
-109 41 -42 7 -43 8 -43 46 0 49 24 53 63 9 31 -34 67 -39 124 -15 19 8 51 15
69 15 29 0 34 4 34 23 0 13 6 35 13 51 11 25 16 27 50 23 21 -3 49 -12 62 -21z
m-605 -110 c0 -8 -5 -18 -11 -22 -14 -8 -33 11 -25 25 10 16 36 13 36 -3z
m1746 3 c24 -6 44 -15 44 -20 0 -12 -20 -11 -56 1 -16 6 -56 14 -89 19 l-60 9
58 1 c32 0 78 -4 103 -10z m-1281 -109 c3 -5 -1 -10 -10 -10 -9 0 -13 5 -10
10 3 6 8 10 10 10 2 0 7 -4 10 -10z m1260 -390 c18 -19 17 -20 -1 -20 -11 0
-25 9 -32 20 -10 16 -10 20 1 20 8 0 22 -9 32 -20z m-765 -39 c0 -6 -4 -13
-10 -16 -5 -3 -10 1 -10 9 0 9 5 16 10 16 6 0 10 -4 10 -9z m564 -10 c6 -10
-73 -33 -86 -25 -5 3 -4 12 3 20 13 15 75 19 83 5z m-367 -48 c-16 -16 -17
-16 -17 3 0 26 11 37 24 24 7 -7 5 -16 -7 -27z m-257 19 c0 -5 -13 -20 -28
-35 -23 -22 -37 -27 -81 -27 -46 0 -52 2 -41 15 7 8 18 15 25 15 7 0 18 6 25
14 15 19 100 34 100 18z m857 -8 c-3 -3 -12 -4 -19 -1 -8 3 -5 6 6 6 11 1 17
-2 13 -5z"/>
<path d="M1448 823 c-19 -21 -29 -80 -14 -85 10 -3 38 70 34 90 -2 11 -7 9
-20 -5z"/>
<path d="M1393 660 c2 -8 7 -25 11 -37 6 -17 3 -23 -8 -23 -21 0 -20 -13 2
-33 19 -17 52 -23 52 -9 -1 4 -14 32 -31 62 -17 30 -28 48 -26 40z"/>
</g>
</svg>
